<svg width="294" height="52" viewBox="0 0 294 52" fill="none" xmlns="http://www.w3.org/2000/svg">
<path d="M14.5298 51.6591C11.8835 51.6591 9.61435 51.2947 7.7223 50.5661C5.84304 49.8501 4.3473 48.8722 3.23509 47.6321C2.12287 46.392 1.40057 44.9986 1.06818 43.4517L8.62358 42.4354C8.85369 43.0234 9.21804 43.5732 9.71662 44.0845C10.2152 44.5959 10.8736 45.005 11.6918 45.3118C12.5227 45.6314 13.5327 45.7912 14.7216 45.7912C16.4986 45.7912 17.9624 45.3565 19.1129 44.4872C20.2763 43.6307 20.858 42.1925 20.858 40.1726V34.7841H20.5128C20.1548 35.6023 19.6179 36.3757 18.902 37.1044C18.1861 37.8331 17.2656 38.4276 16.1406 38.8878C15.0156 39.348 13.6733 39.5781 12.1136 39.5781C9.90199 39.5781 7.88849 39.0668 6.07315 38.044C4.2706 37.0085 2.83239 35.4297 1.75852 33.3075C0.697443 31.1726 0.166904 28.4751 0.166904 25.2152C0.166904 21.8786 0.710227 19.0916 1.79688 16.8544C2.88352 14.6172 4.32813 12.9425 6.13068 11.8303C7.94602 10.718 9.93395 10.1619 12.0945 10.1619C13.7436 10.1619 15.1243 10.4432 16.2365 11.0057C17.3487 11.5554 18.2436 12.2457 18.9212 13.0767C19.6115 13.8949 20.142 14.7003 20.5128 15.4929H20.8196V10.5455H28.9311V40.2876C28.9311 42.7933 28.3175 44.8899 27.0902 46.5774C25.8629 48.2649 24.1626 49.5305 21.9893 50.3743C19.8288 51.2308 17.3423 51.6591 14.5298 51.6591ZM14.7024 33.4418C16.0192 33.4418 17.1314 33.1158 18.0391 32.4638C18.9595 31.799 19.6626 30.853 20.1484 29.6257C20.647 28.3857 20.8963 26.9027 20.8963 25.1768C20.8963 23.451 20.6534 21.9553 20.1676 20.6896C19.6818 19.4112 18.9787 18.4205 18.0582 17.7173C17.1378 17.0142 16.0192 16.6626 14.7024 16.6626C13.3601 16.6626 12.2287 17.027 11.3082 17.7557C10.3878 18.4716 9.69105 19.4687 9.21804 20.7472C8.74503 22.0256 8.50852 23.5021 8.50852 25.1768C8.50852 26.8771 8.74503 28.3473 9.21804 29.5874C9.70384 30.8146 10.4006 31.767 11.3082 32.4446C12.2287 33.1094 13.3601 33.4418 14.7024 33.4418ZM43.6009 0.727272V40H35.4318V0.727272H43.6009ZM63.4529 40.5753C60.4743 40.5753 57.8983 39.9425 55.725 38.6768C53.5645 37.3984 51.8961 35.6214 50.72 33.3459C49.5439 31.0575 48.9558 28.4048 48.9558 25.3878C48.9558 22.3452 49.5439 19.6861 50.72 17.4105C51.8961 15.1222 53.5645 13.3452 55.725 12.0795C57.8983 10.8011 60.4743 10.1619 63.4529 10.1619C66.4316 10.1619 69.0012 10.8011 71.1618 12.0795C73.3351 13.3452 75.0098 15.1222 76.1859 17.4105C77.362 19.6861 77.9501 22.3452 77.9501 25.3878C77.9501 28.4048 77.362 31.0575 76.1859 33.3459C75.0098 35.6214 73.3351 37.3984 71.1618 38.6768C69.0012 39.9425 66.4316 40.5753 63.4529 40.5753ZM63.4913 34.2472C64.8464 34.2472 65.9778 33.8636 66.8855 33.0966C67.7931 32.3168 68.4771 31.2557 68.9373 29.9134C69.4103 28.571 69.6468 27.0433 69.6468 25.3303C69.6468 23.6172 69.4103 22.0895 68.9373 20.7472C68.4771 19.4048 67.7931 18.3437 66.8855 17.5639C65.9778 16.7841 64.8464 16.3942 63.4913 16.3942C62.1234 16.3942 60.9728 16.7841 60.0396 17.5639C59.1191 18.3437 58.4224 19.4048 57.9494 20.7472C57.4892 22.0895 57.2591 23.6172 57.2591 25.3303C57.2591 27.0433 57.4892 28.571 57.9494 29.9134C58.4224 31.2557 59.1191 32.3168 60.0396 33.0966C60.9728 33.8636 62.1234 34.2472 63.4913 34.2472Z" fill="#0292E2"/>
<path d="M174.767 18.9446L167.288 19.4048C167.161 18.7656 166.886 18.1903 166.464 17.679C166.042 17.1548 165.486 16.7393 164.795 16.4325C164.118 16.1129 163.306 15.9531 162.36 15.9531C161.094 15.9531 160.027 16.2216 159.158 16.7585C158.288 17.2827 157.854 17.9858 157.854 18.8679C157.854 19.571 158.135 20.1655 158.697 20.6513C159.26 21.1371 160.225 21.527 161.593 21.821L166.924 22.8949C169.788 23.483 171.923 24.429 173.329 25.733C174.735 27.0369 175.438 28.75 175.438 30.8722C175.438 32.8026 174.869 34.4964 173.732 35.9538C172.607 37.4112 171.06 38.549 169.091 39.3672C167.135 40.1726 164.879 40.5753 162.322 40.5753C158.423 40.5753 155.316 39.7635 153.002 38.1399C150.701 36.5036 149.352 34.2791 148.956 31.4666L156.991 31.0447C157.234 32.2337 157.822 33.1413 158.755 33.7678C159.688 34.3814 160.884 34.6882 162.341 34.6882C163.773 34.6882 164.923 34.4134 165.793 33.8636C166.675 33.3011 167.122 32.5788 167.135 31.6967C167.122 30.9553 166.809 30.348 166.195 29.875C165.582 29.3892 164.636 29.0185 163.357 28.7628L158.256 27.7464C155.38 27.1712 153.239 26.174 151.832 24.755C150.439 23.3359 149.742 21.527 149.742 19.3281C149.742 17.4361 150.254 15.8061 151.276 14.4382C152.312 13.0703 153.763 12.0156 155.629 11.2741C157.509 10.5327 159.707 10.1619 162.226 10.1619C165.946 10.1619 168.874 10.9482 171.009 12.5206C173.156 14.093 174.409 16.2344 174.767 18.9446ZM188.751 22.9716V40H180.582V0.727272H188.521V15.7422H188.866C189.531 14.0036 190.605 12.642 192.088 11.6577C193.571 10.6605 195.431 10.1619 197.668 10.1619C199.714 10.1619 201.497 10.6094 203.018 11.5043C204.552 12.3864 205.741 13.6584 206.585 15.3203C207.442 16.9695 207.863 18.9446 207.851 21.2457V40H199.682V22.7031C199.694 20.8878 199.234 19.4751 198.301 18.4652C197.381 17.4553 196.089 16.9503 194.427 16.9503C193.315 16.9503 192.331 17.1868 191.474 17.6598C190.631 18.1328 189.966 18.8232 189.48 19.7308C189.007 20.6257 188.764 21.706 188.751 22.9716ZM222.679 40.5561C220.799 40.5561 219.125 40.2301 217.654 39.5781C216.184 38.9134 215.021 37.9354 214.164 36.6442C213.321 35.3402 212.899 33.7166 212.899 31.7734C212.899 30.1371 213.199 28.7628 213.8 27.6506C214.401 26.5384 215.219 25.6435 216.255 24.9659C217.29 24.2884 218.466 23.777 219.783 23.4318C221.113 23.0866 222.506 22.8438 223.963 22.7031C225.676 22.5241 227.057 22.358 228.105 22.2045C229.154 22.0384 229.914 21.7955 230.387 21.4759C230.86 21.1562 231.097 20.6832 231.097 20.0568V19.9418C231.097 18.7273 230.713 17.7876 229.946 17.1229C229.192 16.4581 228.118 16.1257 226.725 16.1257C225.255 16.1257 224.085 16.4517 223.216 17.1037C222.346 17.7429 221.771 18.5483 221.49 19.5199L213.934 18.9062C214.318 17.1165 215.072 15.5696 216.197 14.2656C217.322 12.9489 218.773 11.9389 220.55 11.2358C222.34 10.5199 224.411 10.1619 226.763 10.1619C228.4 10.1619 229.966 10.3537 231.461 10.7372C232.97 11.1207 234.306 11.7152 235.469 12.5206C236.645 13.326 237.572 14.3615 238.25 15.6271C238.927 16.88 239.266 18.3821 239.266 20.1335V40H231.519V35.9155H231.289C230.816 36.8359 230.183 37.6477 229.39 38.3509C228.598 39.0412 227.645 39.5845 226.533 39.9808C225.421 40.3643 224.136 40.5561 222.679 40.5561ZM225.018 34.9183C226.22 34.9183 227.281 34.6818 228.201 34.2088C229.122 33.723 229.844 33.071 230.368 32.2528C230.892 31.4347 231.154 30.5078 231.154 29.4723V26.3466C230.899 26.5128 230.547 26.6662 230.1 26.8068C229.665 26.9347 229.173 27.0561 228.623 27.1712C228.074 27.2734 227.524 27.3693 226.974 27.4588C226.424 27.5355 225.926 27.6058 225.478 27.6697C224.52 27.8104 223.682 28.0341 222.966 28.3409C222.25 28.6477 221.694 29.0632 221.298 29.5874C220.902 30.0987 220.703 30.7379 220.703 31.505C220.703 32.6172 221.106 33.4673 221.912 34.0554C222.73 34.6307 223.765 34.9183 225.018 34.9183ZM245.604 40V10.5455H253.523V15.6847H253.83C254.367 13.8565 255.268 12.4759 256.534 11.5426C257.8 10.5966 259.257 10.1236 260.906 10.1236C261.315 10.1236 261.756 10.1491 262.229 10.2003C262.702 10.2514 263.118 10.3217 263.476 10.4112V17.6598C263.092 17.5447 262.562 17.4425 261.884 17.353C261.207 17.2635 260.587 17.2188 260.024 17.2188C258.822 17.2188 257.749 17.4808 256.803 18.005C255.869 18.5163 255.128 19.2322 254.578 20.1527C254.041 21.0732 253.773 22.1342 253.773 23.3359V40H245.604ZM279.752 40.5753C276.722 40.5753 274.114 39.9616 271.928 38.7344C269.754 37.4943 268.08 35.7429 266.904 33.4801C265.727 31.2045 265.139 28.5135 265.139 25.407C265.139 22.3771 265.727 19.718 266.904 17.4297C268.08 15.1413 269.735 13.358 271.87 12.0795C274.018 10.8011 276.536 10.1619 279.426 10.1619C281.369 10.1619 283.178 10.4751 284.852 11.1016C286.54 11.7152 288.01 12.642 289.263 13.8821C290.529 15.1222 291.513 16.6818 292.216 18.5611C292.919 20.4276 293.271 22.6136 293.271 25.1193V27.3629H268.399V22.3004H285.581C285.581 21.1243 285.325 20.0824 284.814 19.1747C284.303 18.267 283.593 17.5575 282.686 17.0462C281.791 16.522 280.749 16.2599 279.56 16.2599C278.32 16.2599 277.22 16.5476 276.262 17.1229C275.316 17.6854 274.574 18.446 274.037 19.4048C273.5 20.3509 273.225 21.4055 273.213 22.5689V27.3821C273.213 28.8395 273.481 30.0987 274.018 31.1598C274.568 32.2209 275.341 33.0391 276.338 33.6143C277.335 34.1896 278.518 34.4773 279.886 34.4773C280.794 34.4773 281.624 34.3494 282.379 34.0938C283.133 33.8381 283.779 33.4545 284.316 32.9432C284.852 32.4318 285.262 31.8054 285.543 31.0639L293.098 31.5625C292.715 33.3778 291.928 34.9631 290.74 36.3182C289.563 37.6605 288.042 38.7088 286.176 39.4631C284.322 40.2045 282.181 40.5753 279.752 40.5753Z" fill="#44BCFF"/>
<path d="M83.4134 40V0.727272H91.5824V15.4929H91.8317C92.1896 14.7003 92.7074 13.8949 93.3849 13.0767C94.0753 12.2457 94.9702 11.5554 96.0696 11.0057C97.1818 10.4432 98.5625 10.1619 100.212 10.1619C102.359 10.1619 104.341 10.7244 106.156 11.8494C107.972 12.9616 109.423 14.6428 110.509 16.8928C111.596 19.13 112.139 21.9361 112.139 25.3111C112.139 28.5966 111.609 31.3707 110.548 33.6335C109.499 35.8835 108.067 37.5902 106.252 38.7536C104.45 39.9041 102.43 40.4794 100.192 40.4794C98.6072 40.4794 97.2585 40.2173 96.1463 39.6932C95.0469 39.169 94.1456 38.5107 93.4425 37.718C92.7393 36.9126 92.2024 36.1009 91.8317 35.2827H91.4673V40H83.4134ZM91.4098 25.2727C91.4098 27.0241 91.6527 28.5518 92.1385 29.8558C92.6243 31.1598 93.3274 32.1761 94.2479 32.9048C95.1683 33.6207 96.2869 33.9787 97.6037 33.9787C98.9332 33.9787 100.058 33.6143 100.979 32.8857C101.899 32.1442 102.596 31.1214 103.069 29.8175C103.555 28.5007 103.798 26.9858 103.798 25.2727C103.798 23.5724 103.561 22.0767 103.088 20.7855C102.615 19.4943 101.918 18.4844 100.998 17.7557C100.077 17.027 98.946 16.6626 97.6037 16.6626C96.2741 16.6626 95.1491 17.0142 94.2287 17.7173C93.321 18.4205 92.6243 19.4176 92.1385 20.7088C91.6527 22 91.4098 23.5213 91.4098 25.2727ZM131.013 40.5753C127.983 40.5753 125.376 39.9616 123.189 38.7344C121.016 37.4943 119.341 35.7429 118.165 33.4801C116.989 31.2045 116.401 28.5135 116.401 25.407C116.401 22.3771 116.989 19.718 118.165 17.4297C119.341 15.1413 120.997 13.358 123.132 12.0795C125.28 10.8011 127.798 10.1619 130.687 10.1619C132.631 10.1619 134.439 10.4751 136.114 11.1016C137.802 11.7152 139.272 12.642 140.525 13.8821C141.79 15.1222 142.775 16.6818 143.478 18.5611C144.181 20.4276 144.532 22.6136 144.532 25.1193V27.3629H119.661V22.3004H136.843C136.843 21.1243 136.587 20.0824 136.076 19.1747C135.564 18.267 134.855 17.5575 133.947 17.0462C133.052 16.522 132.01 16.2599 130.822 16.2599C129.581 16.2599 128.482 16.5476 127.523 17.1229C126.577 17.6854 125.836 18.446 125.299 19.4048C124.762 20.3509 124.487 21.4055 124.474 22.5689V27.3821C124.474 28.8395 124.743 30.0987 125.28 31.1598C125.829 32.2209 126.603 33.0391 127.6 33.6143C128.597 34.1896 129.78 34.4773 131.148 34.4773C132.055 34.4773 132.886 34.3494 133.64 34.0938C134.395 33.8381 135.04 33.4545 135.577 32.9432C136.114 32.4318 136.523 31.8054 136.805 31.0639L144.36 31.5625C143.976 33.3778 143.19 34.9631 142.001 36.3182C140.825 37.6605 139.304 38.7088 137.437 39.4631C135.584 40.2045 133.442 40.5753 131.013 40.5753Z" fill="#0292E2"/>
</svg>
