<svg width="128" height="128" viewBox="0 0 128 128" fill="none" xmlns="http://www.w3.org/2000/svg">
<circle cx="64" cy="64" r="64" fill="url(#paint0_linear_0_1)"/>
<path d="M46.2642 95.4091C42.5398 95.4091 39.3461 94.8963 36.6832 93.8707C34.0384 92.8632 31.9332 91.4867 30.3679 89.7415C28.8026 87.9962 27.786 86.035 27.3182 83.858L37.9517 82.4276C38.2756 83.2552 38.7884 84.0289 39.4901 84.7486C40.1918 85.4683 41.1184 86.044 42.2699 86.4759C43.4394 86.9257 44.8608 87.1506 46.5341 87.1506C49.035 87.1506 51.0952 86.5388 52.7145 85.3153C54.3518 84.1098 55.1705 82.0857 55.1705 79.2429V71.6591H54.6847C54.1809 72.8106 53.4252 73.8991 52.4176 74.9247C51.41 75.9503 50.1146 76.7869 48.5312 77.4347C46.9479 78.0824 45.0587 78.4062 42.8636 78.4062C39.7509 78.4062 36.9171 77.6866 34.3622 76.2472C31.8253 74.7898 29.8011 72.5677 28.2898 69.581C26.7964 66.5762 26.0497 62.7798 26.0497 58.1918C26.0497 53.4957 26.8144 49.5734 28.3438 46.4247C29.8731 43.276 31.9063 40.919 34.4432 39.3537C36.9981 37.7884 39.7959 37.0057 42.8366 37.0057C45.1577 37.0057 47.1009 37.4015 48.6662 38.1932C50.2315 38.9669 51.491 39.9384 52.4446 41.108C53.4162 42.2595 54.1629 43.393 54.6847 44.5085H55.1165V37.5455H66.5327V79.4048C66.5327 82.9313 65.669 85.8821 63.9418 88.2571C62.2145 90.6321 59.8215 92.4134 56.7628 93.6009C53.7221 94.8063 50.2225 95.4091 46.2642 95.4091ZM46.5071 69.7699C48.3603 69.7699 49.9257 69.3111 51.2031 68.3935C52.4986 67.4579 53.4882 66.1264 54.1719 64.3991C54.8736 62.6539 55.2244 60.5668 55.2244 58.1378C55.2244 55.7088 54.8826 53.6037 54.1989 51.8224C53.5152 50.0232 52.5256 48.6288 51.2301 47.6392C49.9347 46.6496 48.3603 46.1548 46.5071 46.1548C44.6179 46.1548 43.0256 46.6676 41.7301 47.6932C40.4347 48.7008 39.4541 50.1042 38.7884 51.9034C38.1226 53.7027 37.7898 55.7808 37.7898 58.1378C37.7898 60.5308 38.1226 62.5999 38.7884 64.3452C39.4721 66.0724 40.4527 67.4129 41.7301 68.3665C43.0256 69.3021 44.6179 69.7699 46.5071 69.7699ZM110.173 49.3665L99.6477 50.0142C99.4678 49.1146 99.081 48.3049 98.4872 47.5852C97.8935 46.8475 97.1108 46.2628 96.1392 45.831C95.1856 45.3812 94.0431 45.1562 92.7116 45.1562C90.9304 45.1562 89.428 45.5341 88.2045 46.2898C86.9811 47.0275 86.3693 48.017 86.3693 49.2585C86.3693 50.2481 86.7652 51.0848 87.5568 51.7685C88.3485 52.4522 89.7069 53.0009 91.6321 53.4148L99.1349 54.9261C103.165 55.7538 106.17 57.0852 108.149 58.9205C110.128 60.7557 111.118 63.1667 111.118 66.1534C111.118 68.8703 110.317 71.2543 108.716 73.3054C107.133 75.3565 104.955 76.9579 102.185 78.1094C99.4318 79.2429 96.2562 79.8097 92.6577 79.8097C87.17 79.8097 82.7978 78.6671 79.5412 76.3821C76.3026 74.0791 74.4044 70.9484 73.8466 66.9901L85.1548 66.3963C85.4967 68.0696 86.3243 69.3471 87.6378 70.2287C88.9512 71.0923 90.6335 71.5241 92.6847 71.5241C94.6998 71.5241 96.3191 71.1373 97.5426 70.3636C98.7841 69.572 99.4138 68.5554 99.4318 67.3139C99.4138 66.2704 98.973 65.4157 98.1094 64.75C97.2457 64.0663 95.9143 63.5445 94.1151 63.1847L86.9361 61.7543C82.8878 60.9446 79.8741 59.5412 77.8949 57.544C75.9337 55.5469 74.9531 53.0009 74.9531 49.9062C74.9531 47.2434 75.6728 44.9493 77.1122 43.0241C78.5696 41.099 80.6117 39.6146 83.2386 38.571C85.8835 37.5275 88.9782 37.0057 92.5227 37.0057C97.7585 37.0057 101.879 38.1122 104.884 40.3253C107.906 42.5384 109.67 45.5521 110.173 49.3665Z" fill="white"/>
<defs>
<linearGradient id="paint0_linear_0_1" x1="7" y1="91" x2="133" y2="41" gradientUnits="userSpaceOnUse">
<stop stop-color="#0292E2"/>
<stop offset="1" stop-color="#44BCFF" stop-opacity="0.7"/>
</linearGradient>
</defs>
</svg>
