<svg width="172" height="172" viewBox="0 0 172 172" fill="none" xmlns="http://www.w3.org/2000/svg">
<path d="M172 86C172 105.897 165.101 125.178 152.479 140.558C139.857 155.938 122.292 166.466 102.778 170.348C83.2635 174.229 63.0071 171.224 45.4599 161.845C27.9127 152.466 14.1604 137.293 6.54636 118.911C-1.06772 100.529 -2.07253 80.0753 3.70313 61.0355C9.47879 41.9957 21.6776 25.5476 38.221 14.4936C54.7643 3.43968 74.6287 -1.53609 94.4295 0.414112C114.23 2.36431 132.742 11.1198 146.811 25.1888L134.508 37.4923C123.285 26.2697 108.519 19.2857 92.724 17.73C76.9294 16.1744 61.084 20.1435 47.8877 28.9609C34.6914 37.7784 24.9607 50.8988 20.3536 66.0864C15.7465 81.274 16.548 97.5893 22.6216 112.252C28.6952 126.915 39.665 139.018 53.6621 146.5C67.6591 153.982 83.8172 156.378 99.3833 153.282C114.949 150.186 128.96 141.788 139.029 129.52C149.097 117.251 154.6 101.871 154.6 86H172Z" fill="url(#paint0_linear_0_1)"/>
<defs>
<linearGradient id="paint0_linear_0_1" x1="86" y1="0" x2="86" y2="172" gradientUnits="userSpaceOnUse">
<stop stop-color="#0292E2"/>
<stop offset="1" stop-color="#44BCFF"/>
</linearGradient>
</defs>
</svg>
