<svg width="205" height="49" viewBox="0 0 205 49" fill="none" xmlns="http://www.w3.org/2000/svg">
<g clip-path="url(#clip0_1_2)">
<path d="M10.496 47C8.96 47 7.68 46.6 6.656 45.8C5.632 45 5.12 43.848 5.12 42.344C5.12 40.52 5.856 39.048 7.328 37.928C8.8 36.84 10.672 35.928 12.944 35.192L13.52 32.648C11.888 34.408 9.968 35.288 7.76 35.288C5.936 35.288 4.416 34.664 3.2 33.416C1.984 32.168 1.376 30.216 1.376 27.56C1.376 25.192 1.84 22.712 2.768 20.12C3.728 17.496 5.136 15.288 6.992 13.496C8.88 11.672 11.12 10.76 13.712 10.76C15.024 10.76 16 10.984 16.64 11.432C17.28 11.88 17.6 12.472 17.6 13.208V13.496L18.128 11H25.04L20.288 33.272C21.824 32.76 23.056 31.992 23.984 30.968C24.912 29.944 25.696 28.424 26.336 26.408H28.352C27.488 29.256 26.32 31.352 24.848 32.696C23.376 34.008 21.712 34.904 19.856 35.384L19.136 38.84C18.496 41.944 17.392 44.072 15.824 45.224C14.256 46.408 12.48 47 10.496 47ZM10.88 30.632C11.616 30.632 12.368 30.296 13.136 29.624C13.904 28.952 14.432 28.04 14.72 26.888L17.168 15.512C17.168 15.128 17.008 14.744 16.688 14.36C16.368 13.944 15.872 13.736 15.2 13.736C13.92 13.736 12.768 14.488 11.744 15.992C10.72 17.464 9.92 19.256 9.344 21.368C8.768 23.448 8.48 25.288 8.48 26.888C8.48 28.488 8.704 29.512 9.152 29.96C9.632 30.408 10.208 30.632 10.88 30.632ZM9.392 43.256C9.936 43.256 10.464 42.888 10.976 42.152C11.488 41.416 11.888 40.36 12.176 38.984L12.464 37.592C9.328 38.744 7.76 40.104 7.76 41.672C7.76 42.088 7.904 42.456 8.192 42.776C8.48 43.096 8.88 43.256 9.392 43.256ZM31.0801 35.288C29.5441 35.288 28.2961 34.808 27.3361 33.848C26.4081 32.888 25.9441 31.448 25.9441 29.528C25.9441 28.728 26.0721 27.688 26.3281 26.408L31.4641 2.36L38.5681 1.4L33.0481 27.32C32.9201 27.8 32.8561 28.312 32.8561 28.856C32.8561 29.496 33.0001 29.96 33.2881 30.248C33.6081 30.504 34.1201 30.632 34.8241 30.632C35.7521 30.632 36.6161 30.248 37.4161 29.48C38.2161 28.68 38.7921 27.656 39.1441 26.408H41.1601C39.9761 29.864 38.4561 32.216 36.6001 33.464C34.7441 34.68 32.9041 35.288 31.0801 35.288ZM46.133 35.192C43.765 35.192 41.893 34.584 40.517 33.368C39.141 32.152 38.453 30.232 38.453 27.608C38.453 25.432 38.901 23.016 39.797 20.36C40.693 17.704 42.133 15.416 44.117 13.496C46.101 11.544 48.597 10.568 51.605 10.568C55.701 10.568 57.749 13.128 57.749 18.248V18.296C57.845 18.328 58.021 18.344 58.277 18.344C59.333 18.344 60.549 18.072 61.925 17.528C63.301 16.952 64.549 16.264 65.669 15.464L66.101 16.76C65.173 17.752 63.957 18.6 62.453 19.304C60.981 19.976 59.365 20.456 57.605 20.744C57.349 23.656 56.693 26.2 55.637 28.376C54.581 30.552 53.221 32.232 51.557 33.416C49.893 34.6 48.085 35.192 46.133 35.192ZM48.053 30.872C48.821 30.872 49.589 30.44 50.357 29.576C51.125 28.68 51.797 27.48 52.373 25.976C52.949 24.44 53.365 22.744 53.621 20.888C52.757 20.696 52.325 20.024 52.325 18.872C52.325 17.56 52.821 16.696 53.813 16.28C53.749 15.224 53.589 14.504 53.333 14.12C53.077 13.704 52.629 13.496 51.989 13.496C50.933 13.496 49.909 14.264 48.917 15.8C47.925 17.336 47.125 19.176 46.517 21.32C45.909 23.464 45.605 25.352 45.605 26.984C45.605 28.52 45.781 29.56 46.133 30.104C46.485 30.616 47.125 30.872 48.053 30.872ZM66.6028 35.288C64.4268 35.288 62.7628 34.76 61.6108 33.704C60.4588 32.616 59.8827 31.096 59.8827 29.144C59.8827 28.184 59.9947 27.272 60.2188 26.408L65.3548 2.36L72.4588 1.4L70.1548 12.2C71.0508 11.656 71.7868 11.304 72.3628 11.144C72.9388 10.952 73.5148 10.856 74.0908 10.856C77.8668 10.856 79.7548 13.592 79.7548 19.064C79.7548 21.272 79.3228 23.64 78.4588 26.168C77.6268 28.664 76.2188 30.808 74.2348 32.6C72.2828 34.392 69.7388 35.288 66.6028 35.288ZM69.2908 30.632C70.2828 30.632 71.2108 30.024 72.0748 28.808C72.9388 27.56 73.6268 26.024 74.1388 24.2C74.6508 22.344 74.9068 20.568 74.9068 18.872C74.9068 17.592 74.6828 16.504 74.2348 15.608C73.7868 14.712 73.1628 14.264 72.3628 14.264C71.8828 14.264 71.3388 14.344 70.7308 14.504C70.1548 14.632 69.7548 14.84 69.5308 15.128L66.8908 27.32C66.7948 27.704 66.7468 28.072 66.7468 28.424C66.7468 29.896 67.5948 30.632 69.2908 30.632ZM88.4109 35.288C86.0429 35.288 84.2029 34.68 82.8909 33.464C81.5789 32.216 80.9229 30.28 80.9229 27.656C80.9229 25.448 81.3549 23.016 82.2189 20.36C83.0829 17.704 84.4909 15.416 86.4429 13.496C88.3949 11.544 90.8749 10.568 93.8829 10.568C97.4029 10.568 99.1629 12.104 99.1629 15.176C99.1629 16.968 98.6509 18.616 97.6269 20.12C96.6029 21.624 95.2429 22.84 93.5469 23.768C91.8509 24.664 90.0429 25.176 88.1229 25.304C88.0589 26.264 88.0269 26.904 88.0269 27.224C88.0269 28.792 88.2989 29.864 88.8429 30.44C89.3869 30.984 90.2669 31.256 91.4829 31.256C93.2109 31.256 94.6829 30.856 95.8989 30.056C97.1469 29.256 98.5069 28.04 99.9789 26.408H101.611C98.0589 32.328 93.6589 35.288 88.4109 35.288ZM88.5069 23C89.6909 22.936 90.8109 22.52 91.8669 21.752C92.9549 20.984 93.8189 20.008 94.4589 18.824C95.1309 17.64 95.4669 16.392 95.4669 15.08C95.4669 13.768 95.0669 13.112 94.2669 13.112C93.1149 13.112 91.9789 14.12 90.8589 16.136C89.7709 18.152 88.9869 20.44 88.5069 23ZM105.441 35.288C103.905 35.288 102.609 35 101.553 34.424C100.497 33.816 99.7127 33.048 99.2007 32.12C98.6887 31.16 98.4327 30.168 98.4327 29.144C98.4327 28.088 98.6887 27.176 99.2007 26.408C99.6807 25.608 100.273 25.032 100.977 24.68C102.225 22.44 103.313 20.184 104.241 17.912C105.169 15.608 106.049 13.128 106.881 10.472L113.985 9.512C114.145 13.608 114.417 18.04 114.801 22.808C114.961 24.728 115.041 26.12 115.041 26.984C115.041 27.72 114.977 28.328 114.849 28.808C116.353 27.944 117.505 27.144 118.305 26.408H120.321C118.273 28.776 115.825 30.776 112.977 32.408C112.049 33.4 110.897 34.136 109.521 34.616C108.177 35.064 106.817 35.288 105.441 35.288ZM103.905 31.496C105.089 31.496 106.081 31.144 106.881 30.44C107.681 29.736 108.081 28.6 108.081 27.032C108.081 26.072 107.985 24.728 107.793 23C107.473 19.352 107.265 16.904 107.169 15.656C106.401 18.184 105.105 21.208 103.281 24.728C104.017 25.112 104.385 25.672 104.385 26.408C104.385 27.016 104.177 27.56 103.761 28.04C103.377 28.52 102.881 28.76 102.273 28.76C101.601 28.76 101.169 28.552 100.977 28.136C100.977 29.288 101.201 30.136 101.649 30.68C102.129 31.224 102.881 31.496 103.905 31.496ZM135.625 35.288C133.673 35.288 132.233 34.776 131.305 33.752C130.409 32.696 129.961 31.4 129.961 29.864C129.961 29.192 130.041 28.44 130.201 27.608C130.361 26.744 130.521 25.912 130.681 25.112C130.873 24.312 131.001 23.8 131.065 23.576C131.321 22.456 131.561 21.352 131.785 20.264C132.009 19.176 132.121 18.296 132.121 17.624C132.121 15.992 131.545 15.176 130.393 15.176C129.561 15.176 128.825 15.592 128.185 16.424C127.545 17.224 127.033 18.28 126.649 19.592L123.385 35H116.473L123.433 2.36L130.537 1.4L127.945 13.496C129.545 11.704 131.417 10.808 133.561 10.808C135.193 10.808 136.489 11.256 137.449 12.152C138.409 13.048 138.889 14.408 138.889 16.232C138.889 17.16 138.777 18.2 138.553 19.352C138.329 20.472 138.009 21.848 137.593 23.48C137.337 24.472 137.097 25.448 136.873 26.408C136.681 27.336 136.585 28.072 136.585 28.616C136.585 29.256 136.729 29.752 137.017 30.104C137.305 30.456 137.801 30.632 138.505 30.632C139.465 30.632 140.233 30.296 140.809 29.624C141.385 28.92 141.961 27.848 142.537 26.408H144.553C143.369 29.928 141.993 32.296 140.425 33.512C138.889 34.696 137.289 35.288 135.625 35.288ZM148.291 35.288C146.467 35.288 144.947 34.664 143.731 33.416C142.515 32.168 141.907 30.216 141.907 27.56C141.907 25.192 142.371 22.712 143.299 20.12C144.259 17.496 145.667 15.288 147.523 13.496C149.411 11.672 151.651 10.76 154.243 10.76C155.555 10.76 156.531 10.984 157.171 11.432C157.811 11.88 158.131 12.472 158.131 13.208V13.544L158.659 11H165.571L162.115 27.32C161.987 27.8 161.923 28.312 161.923 28.856C161.923 30.232 162.579 30.92 163.891 30.92C164.787 30.92 165.555 30.504 166.195 29.672C166.867 28.84 167.395 27.752 167.779 26.408H169.795C168.611 29.864 167.139 32.216 165.379 33.464C163.651 34.68 161.907 35.288 160.147 35.288C158.803 35.288 157.715 34.92 156.883 34.184C156.083 33.416 155.603 32.312 155.443 30.872C154.515 32.184 153.475 33.256 152.323 34.088C151.203 34.888 149.859 35.288 148.291 35.288ZM151.411 30.632C152.211 30.632 152.995 30.264 153.763 29.528C154.563 28.76 155.107 27.72 155.395 26.408L157.699 15.56C157.699 15.144 157.539 14.744 157.219 14.36C156.899 13.944 156.403 13.736 155.731 13.736C154.451 13.736 153.299 14.488 152.275 15.992C151.251 17.464 150.451 19.256 149.875 21.368C149.299 23.448 149.011 25.288 149.011 26.888C149.011 28.488 149.235 29.512 149.683 29.96C150.163 30.408 150.739 30.632 151.411 30.632ZM171.061 11H177.973L177.349 13.976C178.437 13.016 179.413 12.28 180.277 11.768C181.173 11.256 182.133 11 183.157 11C184.181 11 184.981 11.352 185.557 12.056C186.165 12.76 186.469 13.608 186.469 14.6C186.469 15.528 186.165 16.344 185.557 17.048C184.949 17.752 184.101 18.104 183.013 18.104C182.309 18.104 181.829 17.944 181.573 17.624C181.349 17.272 181.173 16.776 181.045 16.136C180.949 15.72 180.853 15.416 180.757 15.224C180.661 15.032 180.485 14.936 180.229 14.936C179.557 14.936 178.981 15.08 178.501 15.368C178.053 15.624 177.461 16.088 176.725 16.76L172.885 35H165.973L171.061 11ZM192.612 35.288C190.276 35.288 188.452 34.68 187.14 33.464C185.828 32.216 185.172 30.28 185.172 27.656C185.172 25.448 185.604 23.016 186.468 20.36C187.332 17.704 188.74 15.416 190.692 13.496C192.644 11.544 195.124 10.568 198.132 10.568C201.652 10.568 203.412 12.104 203.412 15.176C203.412 16.968 202.9 18.616 201.876 20.12C200.852 21.624 199.492 22.84 197.796 23.768C196.1 24.664 194.292 25.176 192.372 25.304C192.308 26.008 192.276 26.488 192.276 26.744C192.276 29.4 193.268 30.728 195.252 30.728C196.148 30.728 197.108 30.488 198.132 30.008C199.156 29.528 200.084 28.92 200.916 28.184C200.052 32.92 197.284 35.288 192.612 35.288ZM192.708 23C193.924 22.968 195.06 22.568 196.116 21.8C197.204 21.032 198.068 20.056 198.708 18.872C199.38 17.656 199.716 16.392 199.716 15.08C199.716 13.768 199.316 13.112 198.516 13.112C197.396 13.112 196.276 14.136 195.156 16.184C194.068 18.2 193.252 20.472 192.708 23Z" fill="url(#paint0_linear_1_2)"/>
</g>
<defs>
<linearGradient id="paint0_linear_1_2" x1="2" y1="17" x2="212" y2="17" gradientUnits="userSpaceOnUse">
<stop stop-color="#023548"/>
<stop offset="1" stop-color="#85EDFF"/>
</linearGradient>
<clipPath id="clip0_1_2">
<rect width="205" height="49" fill="white"/>
</clipPath>
</defs>
</svg>
