<svg width="218" height="57" viewBox="0 0 218 57" fill="none" xmlns="http://www.w3.org/2000/svg">
<g clip-path="url(#clip0_1_2)">
<path d="M17.496 52C15.96 52 14.68 51.6 13.656 50.8C12.632 50 12.12 48.848 12.12 47.344C12.12 45.52 12.856 44.048 14.328 42.928C15.8 41.84 17.672 40.928 19.944 40.192L20.52 37.648C18.888 39.408 16.968 40.288 14.76 40.288C12.936 40.288 11.416 39.664 10.2 38.416C8.984 37.168 8.376 35.216 8.376 32.56C8.376 30.192 8.84 27.712 9.768 25.12C10.728 22.496 12.136 20.288 13.992 18.496C15.88 16.672 18.12 15.76 20.712 15.76C22.024 15.76 23 15.984 23.64 16.432C24.28 16.88 24.6 17.472 24.6 18.208V18.496L25.128 16H32.04L27.288 38.272C28.824 37.76 30.056 36.992 30.984 35.968C31.912 34.944 32.696 33.424 33.336 31.408H35.352C34.488 34.256 33.32 36.352 31.848 37.696C30.376 39.008 28.712 39.904 26.856 40.384L26.136 43.84C25.496 46.944 24.392 49.072 22.824 50.224C21.256 51.408 19.48 52 17.496 52ZM17.88 35.632C18.616 35.632 19.368 35.296 20.136 34.624C20.904 33.952 21.432 33.04 21.72 31.888L24.168 20.512C24.168 20.128 24.008 19.744 23.688 19.36C23.368 18.944 22.872 18.736 22.2 18.736C20.92 18.736 19.768 19.488 18.744 20.992C17.72 22.464 16.92 24.256 16.344 26.368C15.768 28.448 15.48 30.288 15.48 31.888C15.48 33.488 15.704 34.512 16.152 34.96C16.632 35.408 17.208 35.632 17.88 35.632ZM16.392 48.256C16.936 48.256 17.464 47.888 17.976 47.152C18.488 46.416 18.888 45.36 19.176 43.984L19.464 42.592C16.328 43.744 14.76 45.104 14.76 46.672C14.76 47.088 14.904 47.456 15.192 47.776C15.48 48.096 15.88 48.256 16.392 48.256ZM38.0801 40.288C36.5441 40.288 35.2961 39.808 34.3361 38.848C33.4081 37.888 32.9441 36.448 32.9441 34.528C32.9441 33.728 33.0721 32.688 33.3281 31.408L38.4641 7.36L45.5681 6.4L40.0481 32.32C39.9201 32.8 39.8561 33.312 39.8561 33.856C39.8561 34.496 40.0001 34.96 40.2881 35.248C40.6081 35.504 41.1201 35.632 41.8241 35.632C42.7521 35.632 43.6161 35.248 44.4161 34.48C45.2161 33.68 45.7921 32.656 46.1441 31.408H48.1601C46.9761 34.864 45.4561 37.216 43.6001 38.464C41.7441 39.68 39.9041 40.288 38.0801 40.288ZM53.133 40.192C50.765 40.192 48.893 39.584 47.517 38.368C46.141 37.152 45.453 35.232 45.453 32.608C45.453 30.432 45.901 28.016 46.797 25.36C47.693 22.704 49.133 20.416 51.117 18.496C53.101 16.544 55.597 15.568 58.605 15.568C62.701 15.568 64.749 18.128 64.749 23.248V23.296C64.845 23.328 65.021 23.344 65.277 23.344C66.333 23.344 67.549 23.072 68.925 22.528C70.301 21.952 71.549 21.264 72.669 20.464L73.101 21.76C72.173 22.752 70.957 23.6 69.453 24.304C67.981 24.976 66.365 25.456 64.605 25.744C64.349 28.656 63.693 31.2 62.637 33.376C61.581 35.552 60.221 37.232 58.557 38.416C56.893 39.6 55.085 40.192 53.133 40.192ZM55.053 35.872C55.821 35.872 56.589 35.44 57.357 34.576C58.125 33.68 58.797 32.48 59.373 30.976C59.949 29.44 60.365 27.744 60.621 25.888C59.757 25.696 59.325 25.024 59.325 23.872C59.325 22.56 59.821 21.696 60.813 21.28C60.749 20.224 60.589 19.504 60.333 19.12C60.077 18.704 59.629 18.496 58.989 18.496C57.933 18.496 56.909 19.264 55.917 20.8C54.925 22.336 54.125 24.176 53.517 26.32C52.909 28.464 52.605 30.352 52.605 31.984C52.605 33.52 52.781 34.56 53.133 35.104C53.485 35.616 54.125 35.872 55.053 35.872ZM73.6028 40.288C71.4268 40.288 69.7628 39.76 68.6108 38.704C67.4588 37.616 66.8827 36.096 66.8827 34.144C66.8827 33.184 66.9947 32.272 67.2188 31.408L72.3548 7.36L79.4588 6.4L77.1548 17.2C78.0508 16.656 78.7868 16.304 79.3628 16.144C79.9388 15.952 80.5148 15.856 81.0908 15.856C84.8668 15.856 86.7548 18.592 86.7548 24.064C86.7548 26.272 86.3228 28.64 85.4588 31.168C84.6268 33.664 83.2188 35.808 81.2348 37.6C79.2828 39.392 76.7388 40.288 73.6028 40.288ZM76.2908 35.632C77.2828 35.632 78.2108 35.024 79.0748 33.808C79.9388 32.56 80.6268 31.024 81.1388 29.2C81.6508 27.344 81.9068 25.568 81.9068 23.872C81.9068 22.592 81.6828 21.504 81.2348 20.608C80.7868 19.712 80.1628 19.264 79.3628 19.264C78.8828 19.264 78.3388 19.344 77.7308 19.504C77.1548 19.632 76.7548 19.84 76.5308 20.128L73.8908 32.32C73.7948 32.704 73.7468 33.072 73.7468 33.424C73.7468 34.896 74.5948 35.632 76.2908 35.632ZM95.4109 40.288C93.0429 40.288 91.2029 39.68 89.8909 38.464C88.5789 37.216 87.9229 35.28 87.9229 32.656C87.9229 30.448 88.3549 28.016 89.2189 25.36C90.0829 22.704 91.4909 20.416 93.4429 18.496C95.3949 16.544 97.8749 15.568 100.883 15.568C104.403 15.568 106.163 17.104 106.163 20.176C106.163 21.968 105.651 23.616 104.627 25.12C103.603 26.624 102.243 27.84 100.547 28.768C98.8509 29.664 97.0429 30.176 95.1229 30.304C95.0589 31.264 95.0269 31.904 95.0269 32.224C95.0269 33.792 95.2989 34.864 95.8429 35.44C96.3869 35.984 97.2669 36.256 98.4829 36.256C100.211 36.256 101.683 35.856 102.899 35.056C104.147 34.256 105.507 33.04 106.979 31.408H108.611C105.059 37.328 100.659 40.288 95.4109 40.288ZM95.5069 28C96.6909 27.936 97.8109 27.52 98.8669 26.752C99.9549 25.984 100.819 25.008 101.459 23.824C102.131 22.64 102.467 21.392 102.467 20.08C102.467 18.768 102.067 18.112 101.267 18.112C100.115 18.112 98.9789 19.12 97.8589 21.136C96.7709 23.152 95.9869 25.44 95.5069 28ZM112.441 40.288C110.905 40.288 109.609 40 108.553 39.424C107.497 38.816 106.713 38.048 106.201 37.12C105.689 36.16 105.433 35.168 105.433 34.144C105.433 33.088 105.689 32.176 106.201 31.408C106.681 30.608 107.273 30.032 107.977 29.68C109.225 27.44 110.313 25.184 111.241 22.912C112.169 20.608 113.049 18.128 113.881 15.472L120.985 14.512C121.145 18.608 121.417 23.04 121.801 27.808C121.961 29.728 122.041 31.12 122.041 31.984C122.041 32.72 121.977 33.328 121.849 33.808C123.353 32.944 124.505 32.144 125.305 31.408H127.321C125.273 33.776 122.825 35.776 119.977 37.408C119.049 38.4 117.897 39.136 116.521 39.616C115.177 40.064 113.817 40.288 112.441 40.288ZM110.905 36.496C112.089 36.496 113.081 36.144 113.881 35.44C114.681 34.736 115.081 33.6 115.081 32.032C115.081 31.072 114.985 29.728 114.793 28C114.473 24.352 114.265 21.904 114.169 20.656C113.401 23.184 112.105 26.208 110.281 29.728C111.017 30.112 111.385 30.672 111.385 31.408C111.385 32.016 111.177 32.56 110.761 33.04C110.377 33.52 109.881 33.76 109.273 33.76C108.601 33.76 108.169 33.552 107.977 33.136C107.977 34.288 108.201 35.136 108.649 35.68C109.129 36.224 109.881 36.496 110.905 36.496ZM142.625 40.288C140.673 40.288 139.233 39.776 138.305 38.752C137.409 37.696 136.961 36.4 136.961 34.864C136.961 34.192 137.041 33.44 137.201 32.608C137.361 31.744 137.521 30.912 137.681 30.112C137.873 29.312 138.001 28.8 138.065 28.576C138.321 27.456 138.561 26.352 138.785 25.264C139.009 24.176 139.121 23.296 139.121 22.624C139.121 20.992 138.545 20.176 137.393 20.176C136.561 20.176 135.825 20.592 135.185 21.424C134.545 22.224 134.033 23.28 133.649 24.592L130.385 40H123.473L130.433 7.36L137.537 6.4L134.945 18.496C136.545 16.704 138.417 15.808 140.561 15.808C142.193 15.808 143.489 16.256 144.449 17.152C145.409 18.048 145.889 19.408 145.889 21.232C145.889 22.16 145.777 23.2 145.553 24.352C145.329 25.472 145.009 26.848 144.593 28.48C144.337 29.472 144.097 30.448 143.873 31.408C143.681 32.336 143.585 33.072 143.585 33.616C143.585 34.256 143.729 34.752 144.017 35.104C144.305 35.456 144.801 35.632 145.505 35.632C146.465 35.632 147.233 35.296 147.809 34.624C148.385 33.92 148.961 32.848 149.537 31.408H151.553C150.369 34.928 148.993 37.296 147.425 38.512C145.889 39.696 144.289 40.288 142.625 40.288ZM155.291 40.288C153.467 40.288 151.947 39.664 150.731 38.416C149.515 37.168 148.907 35.216 148.907 32.56C148.907 30.192 149.371 27.712 150.299 25.12C151.259 22.496 152.667 20.288 154.523 18.496C156.411 16.672 158.651 15.76 161.243 15.76C162.555 15.76 163.531 15.984 164.171 16.432C164.811 16.88 165.131 17.472 165.131 18.208V18.544L165.659 16H172.571L169.115 32.32C168.987 32.8 168.923 33.312 168.923 33.856C168.923 35.232 169.579 35.92 170.891 35.92C171.787 35.92 172.555 35.504 173.195 34.672C173.867 33.84 174.395 32.752 174.779 31.408H176.795C175.611 34.864 174.139 37.216 172.379 38.464C170.651 39.68 168.907 40.288 167.147 40.288C165.803 40.288 164.715 39.92 163.883 39.184C163.083 38.416 162.603 37.312 162.443 35.872C161.515 37.184 160.475 38.256 159.323 39.088C158.203 39.888 156.859 40.288 155.291 40.288ZM158.411 35.632C159.211 35.632 159.995 35.264 160.763 34.528C161.563 33.76 162.107 32.72 162.395 31.408L164.699 20.56C164.699 20.144 164.539 19.744 164.219 19.36C163.899 18.944 163.403 18.736 162.731 18.736C161.451 18.736 160.299 19.488 159.275 20.992C158.251 22.464 157.451 24.256 156.875 26.368C156.299 28.448 156.011 30.288 156.011 31.888C156.011 33.488 156.235 34.512 156.683 34.96C157.163 35.408 157.739 35.632 158.411 35.632ZM178.061 16H184.973L184.349 18.976C185.437 18.016 186.413 17.28 187.277 16.768C188.173 16.256 189.133 16 190.157 16C191.181 16 191.981 16.352 192.557 17.056C193.165 17.76 193.469 18.608 193.469 19.6C193.469 20.528 193.165 21.344 192.557 22.048C191.949 22.752 191.101 23.104 190.013 23.104C189.309 23.104 188.829 22.944 188.573 22.624C188.349 22.272 188.173 21.776 188.045 21.136C187.949 20.72 187.853 20.416 187.757 20.224C187.661 20.032 187.485 19.936 187.229 19.936C186.557 19.936 185.981 20.08 185.501 20.368C185.053 20.624 184.461 21.088 183.725 21.76L179.885 40H172.973L178.061 16ZM199.612 40.288C197.276 40.288 195.452 39.68 194.14 38.464C192.828 37.216 192.172 35.28 192.172 32.656C192.172 30.448 192.604 28.016 193.468 25.36C194.332 22.704 195.74 20.416 197.692 18.496C199.644 16.544 202.124 15.568 205.132 15.568C208.652 15.568 210.412 17.104 210.412 20.176C210.412 21.968 209.9 23.616 208.876 25.12C207.852 26.624 206.492 27.84 204.796 28.768C203.1 29.664 201.292 30.176 199.372 30.304C199.308 31.008 199.276 31.488 199.276 31.744C199.276 34.4 200.268 35.728 202.252 35.728C203.148 35.728 204.108 35.488 205.132 35.008C206.156 34.528 207.084 33.92 207.916 33.184C207.052 37.92 204.284 40.288 199.612 40.288ZM199.708 28C200.924 27.968 202.06 27.568 203.116 26.8C204.204 26.032 205.068 25.056 205.708 23.872C206.38 22.656 206.716 21.392 206.716 20.08C206.716 18.768 206.316 18.112 205.516 18.112C204.396 18.112 203.276 19.136 202.156 21.184C201.068 23.2 200.252 25.472 199.708 28Z" fill="url(#paint0_linear_1_2)"/>
</g>
<defs>
<linearGradient id="paint0_linear_1_2" x1="9" y1="22" x2="218" y2="22" gradientUnits="userSpaceOnUse">
<stop stop-color="#2F6AFF"/>
<stop offset="1" stop-color="#FF6AD2"/>
</linearGradient>
<clipPath id="clip0_1_2">
<rect width="218" height="57" fill="white"/>
</clipPath>
</defs>
</svg>
